<?xml version="1.0" encoding="UTF-8"?>
<svg width="48px" height="48px" viewBox="0 0 48 48" version="1.1" xmlns="http://www.w3.org/2000/svg">
    <g stroke="none" stroke-width="1" fill="none" fill-rule="evenodd">
        <g fill="#F2A494" fill-rule="nonzero">
            <path d="M43.7,32.3 L35.1,40.9 C34.7,41.3 34.1,41.3 33.7,40.9 L32.3,39.5 L26.5,45.3 C26.1,45.7 25.5,45.7 25.1,45.3 L23.7,43.9 C23.3,43.5 23.3,42.9 23.7,42.5 L29.5,36.7 L28.1,35.3 C27.7,34.9 27.7,34.3 28.1,33.9 L36.7,25.3 C37.1,24.9 37.7,24.9 38.1,25.3 L39.5,26.7 L41.9,24.3 L39.5,21.9 L36.1,25.3 C35.7,25.7 35.1,25.7 34.7,25.3 L33.3,23.9 C32.9,23.5 32.9,22.9 33.3,22.5 L43.7,12.1 C44.1,11.7 44.7,11.7 45.1,12.1 L46.5,13.5 C46.9,13.9 46.9,14.5 46.5,14.9 L44.1,17.3 L46.5,19.7 L42.1,24.1 L44.5,26.5 L45.9,25.1 C46.3,24.7 46.9,24.7 47.3,25.1 L48.7,26.5 C49.1,26.9 49.1,27.5 48.7,27.9 L38.3,38.3 C37.9,38.7 37.3,38.7 36.9,38.3 L35.5,36.9 C35.1,36.5 35.1,35.9 35.5,35.5 L36.9,34.1 L34.5,31.7 L30.1,36.1 L32.5,38.5 L40.3,30.7 C40.7,30.3 41.3,30.3 41.7,30.7 L43.1,32.1 C43.5,32.5 43.5,33.1 43.1,33.5 L35.3,41.3 L37.7,43.7 L46.5,34.9 C46.9,34.5 47.5,34.5 47.9,34.9 L41.3,41.5 C40.9,41.9 40.3,41.9 39.9,41.5 L20.1,21.7 C19.7,21.3 19.7,20.7 20.1,20.3 L26.7,13.7 C27.1,13.3 27.7,13.3 28.1,13.7 L29.5,15.1 C29.9,15.5 29.9,16.1 29.5,16.5 L27.7,18.3 C27.3,18.7 27.3,19.3 27.7,19.7 L31.1,23.1 C31.5,23.5 32.1,23.5 32.5,23.1 L34.3,21.3 C34.7,20.9 35.3,20.9 35.7,21.3 L37.1,22.7 C37.5,23.1 37.5,23.7 37.1,24.1 L30.5,30.7 L29.1,29.3 L26.7,31.7 L39.3,44.3 C39.7,44.7 40.3,44.7 40.7,44.3 L42.1,42.9 C42.5,42.5 42.5,41.9 42.1,41.5 L29.3,28.9 L31.7,26.5 L33.1,27.9 L39.5,21.3 L40.1,20.7 C40.5,20.3 41.1,20.3 41.5,20.7 L45.3,24.5 C45.7,24.9 45.7,25.5 45.3,25.9 L44.7,26.5 L43.3,27.9 L40.9,25.5 L37.5,28.9 L39.9,31.3 L41.3,29.9 C41.7,29.5 42.3,29.5 42.7,29.9 L43.7,30.9 C44.1,31.3 44.1,31.9 43.7,32.3 Z M10.1,20.9 L26.9,4.1 C27.3,3.7 27.3,3.1 26.9,2.7 L25.5,1.3 C25.1,0.9 24.5,0.9 24.1,1.3 L7.3,18.1 C6.9,18.5 6.9,19.1 7.3,19.5 L8.7,20.9 C9.1,21.3 9.7,21.3 10.1,20.9 Z M2.9,28.1 L19.7,11.3 C20.1,10.9 20.1,10.3 19.7,9.9 L18.3,8.5 C17.9,8.1 17.3,8.1 16.9,8.5 L0.1,25.3 C-0.3,25.7 -0.3,26.3 0.1,26.7 L1.5,28.1 C1.9,28.5 2.5,28.5 2.9,28.1 Z"></path>
        </g>
    </g>
</svg>
